<svg width="18" height="18" viewBox="0 0 18 18" fill="none" xmlns="http://www.w3.org/2000/svg">
<path d="M8.99892 4.98425e-05C9.12937 -0.000284844 9.25666 0.0401551 9.36299 0.115715C9.47152 0.190209 9.5538 0.297036 9.59811 0.420995L10.2106 2.08961C10.6894 3.39763 11.4477 4.58545 12.4328 5.57021C13.4179 6.55498 14.606 7.31297 15.9142 7.79132L17.5809 8.40378C17.7047 8.44711 17.8118 8.52827 17.887 8.63579C17.9622 8.74332 18.0017 8.87176 17.9999 9.00296C17.999 9.13352 17.9584 9.26071 17.8836 9.36771C17.8087 9.4747 17.7032 9.55645 17.5809 9.60214L15.9142 10.2146C14.6045 10.6905 13.4159 11.4493 12.4328 12.4369C11.4453 13.4199 10.6865 14.6086 10.2106 15.9182L9.59811 17.5849C9.55478 17.7088 9.47362 17.8159 9.36609 17.8911C9.25857 17.9663 9.13012 18.0058 8.99892 18.004C8.86773 18.0058 8.73928 17.9663 8.63176 17.8911C8.52423 17.8159 8.44307 17.7088 8.39974 17.5849L7.78729 15.9182C7.30893 14.61 6.55094 13.422 5.56617 12.4369C4.58141 11.4518 3.39359 10.6934 2.08557 10.2146L0.416958 9.60214C0.294589 9.5568 0.189037 9.47507 0.114497 9.36795C0.0399558 9.26083 0 9.13346 0 9.00296C0 8.87246 0.0399558 8.74509 0.114497 8.63797C0.189037 8.53085 0.294589 8.44913 0.416958 8.40378L2.08557 7.79132C3.39233 7.31046 4.57984 6.55307 5.5669 5.57093C6.54903 4.58388 7.30643 3.39637 7.78729 2.08961L8.39974 0.420995C8.44275 0.296789 8.52378 0.18928 8.63133 0.113721C8.73888 0.0381627 8.86749 -0.00160871 8.99892 4.98425e-05Z" fill="black"/>
</svg>
